<?xml version="1.0" encoding="utf-8"?>
<!-- Generator: Adobe Illustrator 15.1.0, SVG Export Plug-In . SVG Version: 6.00 Build 0)  -->
<!DOCTYPE svg PUBLIC "-//W3C//DTD SVG 1.1//EN" "http://www.w3.org/Graphics/SVG/1.1/DTD/svg11.dtd">
<svg version="1.1" id="Layer_1" xmlns="http://www.w3.org/2000/svg" xmlns:xlink="http://www.w3.org/1999/xlink" x="0px" y="0px"
	 width="27.969px" height="28px" viewBox="0 0 27.969 28" enable-background="new 0 0 27.969 28" xml:space="preserve">
<g transform="scale(0.02734375 0.02734375)">
	<path fill="#231F20" d="M922.849,0c26.643,0,49.999,8.857,69.999,26.571s30,39.91,30,66.571c0,23.999-8.571,52.767-25.714,86.284
		C870.635,419.05,782.063,562.281,731.422,609.138c-36.929,34.643-78.5,51.999-124.57,51.999c-48,0-89.231-17.643-123.714-52.856
		c-34.481-35.214-51.714-77.07-51.714-125.428c0-48.767,17.519-89.142,52.571-121.142L848.563,30.857
		C871.063,10.286,895.777,0,922.849,0L922.849,0z M403.425,590.852c14.856,28.929,35.143,53.714,60.856,74.285
		s54.374,35.071,85.999,43.429l0.571,40.571c1.5,81.142-23.143,147.213-73.999,198.283
		c-50.856,51.071-117.231,76.571-199.142,76.571c-46.856,0-88.374-8.857-124.57-26.571c-36.195-17.714-65.231-42-87.142-72.856
		c-21.91-30.857-38.375-65.714-49.428-104.57C5.518,781.136,0,739.208,0,694.279c2.66,1.929,10.481,7.644,23.428,17.143
		c12.946,9.5,24.768,18,35.429,25.429c10.66,7.429,21.91,14.393,33.714,20.857c11.804,6.5,20.571,9.714,26.285,9.714
		c15.625,0,26.089-7.071,31.429-21.143c9.518-25.143,20.481-46.571,32.856-64.285s25.625-32.214,39.714-43.429
		c14.089-11.214,30.857-20.285,50.285-27.143c19.429-6.856,39.054-11.714,58.856-14.571
		C351.8,593.995,375.621,591.995,403.425,590.852L403.425,590.852z"/>
</g>
</svg>
