<?xml version="1.0" encoding="utf-8"?>
<!-- Generator: Adobe Illustrator 15.1.0, SVG Export Plug-In . SVG Version: 6.00 Build 0)  -->
<!DOCTYPE svg PUBLIC "-//W3C//DTD SVG 1.1//EN" "http://www.w3.org/Graphics/SVG/1.1/DTD/svg11.dtd">
<svg version="1.1" id="Layer_1" xmlns="http://www.w3.org/2000/svg" xmlns:xlink="http://www.w3.org/1999/xlink" x="0px" y="0px"
	 width="27.969px" height="28px" viewBox="0 0 27.969 28" enable-background="new 0 0 27.969 28" xml:space="preserve">
<g transform="scale(0.02734375 0.02734375)">
	<path fill="#FFFFFF" d="M922.858,0c26.643,0,49.964,8.857,69.963,26.571c20,17.714,30,39.91,30,66.571
		c0,23.999-8.535,52.767-25.678,86.284C870.645,419.05,782.073,562.281,731.432,609.138c-36.929,34.643-78.5,51.999-124.57,51.999
		c-48,0-89.25-17.643-123.714-52.856c-34.499-35.214-51.714-77.07-51.714-125.428c0-48.767,17.5-89.142,52.571-121.142
		L848.573,30.857C871.073,10.286,895.787,0,922.858,0L922.858,0z M403.435,590.852c14.856,28.929,35.143,53.714,60.856,74.285
		s54.356,35.071,85.999,43.429l0.571,40.571c1.5,81.142-23.143,147.213-73.999,198.283
		c-50.856,51.071-117.249,76.571-199.142,76.571c-46.856,0-88.392-8.857-124.57-26.571c-36.214-17.714-65.249-42-87.142-72.856
		c-21.929-30.857-38.393-65.714-49.428-104.57C5.51,781.136,0.01,739.208,0.01,694.279c2.643,1.929,10.464,7.644,23.428,17.143
		c12.929,9.5,24.75,18,35.429,25.429c10.643,7.429,21.893,14.393,33.714,20.857c11.785,6.5,20.571,9.714,26.285,9.714
		c15.607,0,26.071-7.071,31.429-21.143c9.5-25.143,20.464-46.571,32.856-64.285c12.357-17.714,25.607-32.214,39.714-43.429
		c14.071-11.214,30.857-20.285,50.285-27.143c19.429-6.856,39.036-11.714,58.856-14.571
		C351.792,593.995,375.613,591.995,403.435,590.852L403.435,590.852z"/>
</g>
</svg>
