<?xml version="1.0" encoding="utf-8"?>
<!-- Generator: Adobe Illustrator 15.1.0, SVG Export Plug-In . SVG Version: 6.00 Build 0)  -->
<!DOCTYPE svg PUBLIC "-//W3C//DTD SVG 1.1//EN" "http://www.w3.org/Graphics/SVG/1.1/DTD/svg11.dtd">
<svg version="1.1" id="Layer_1" xmlns="http://www.w3.org/2000/svg" xmlns:xlink="http://www.w3.org/1999/xlink" x="0px" y="0px"
	 width="512px" height="512px" viewBox="0 0 512 512" enable-background="new 0 0 512 512" xml:space="preserve">
<g id="icomoon-ignore">
</g>
<path fill="#FFFFFF" d="M422,0H102C75.6,0,54,21.6,54,48v416c0,26.4,21.6,48,48,48h320c26.4,0,48-21.6,48-48V48
	C470,21.6,448.4,0,422,0z M262,496c-8.836,0-16-7.163-16-16s7.164-16,16-16s16,7.163,16,16S270.836,496,262,496z M406,448H118V64
	h288V448z"/>
</svg>
